<svg xmlns="http://www.w3.org/2000/svg" xml:space="preserve" viewBox="0 0 512 512">
  <path fill="#fff" d="M290.3 483.5a70 70 0 0 0 6.8-1 113 113 0 0 1 10.3-1.7 149 149 0 0 0 20-4.5l2-.6v-6c0-3.9.2-6.3.4-6.9.2-.6.4-5.4.5-15.5.2-17.5.2-17.1 2-18.1l4.9-2.6a76.4 76.4 0 0 1 20-8.7c1.8 0 3.6 1.3 11.1 7.8 27.2 23.4 24.9 23 41.8 8.4a1425 1425 0 0 1 11.3-9.6l2.8-2.5c5.9-5 5.6-9.2-1.7-21a597.9 597.9 0 0 1-11.7-20.6c-2.8-4.8-2.8-5.7.6-10.3l5.3-7.8c5-7.5 7.1-10 9-11.2 1-.6 2.9-.4 9.3.8a326.8 326.8 0 0 0 25.2 4.3l4.8.7c6.1 1 7.8-.6 11.4-11l5.3-14.8c3-8.1 3.7-10.5 3.4-10.8-.5-.6-10.9-.8-47.5-1h-35.3l-1.9 3.8a139.2 139.2 0 0 1-23.6 34 151.6 151.6 0 0 1-61.7 41 171.3 171.3 0 0 1-38.3 7.9c-1.3.2-3.8.3-9.8.3a59.8 59.8 0 0 1-13.3-.7l-3.5-.3-4.9-.7a149.4 149.4 0 0 1-77.5-37 76.4 76.4 0 0 0-4.2-3.7c-.7-.5-1.7-1.5-2.2-2.1l-4-4.5a143 143 0 0 1-22.4-32.4l-2.9-5.7-15.9.2c-23.7.2-22.5 0-19.1 3.7 1 1 1.6 2 1.9 3l1.2 3.1c4.1 9 7.2 16.4 7.6 17.9.6 3 .8 2.6-13.3 19.2-17.1 20.3-17 18-1.7 35.9a1137 1137 0 0 1 10.7 12.4c5.8 7 6.8 6.9 26.6-4.3a602 602 0 0 1 13.3-7.5c7.4-4.4 8.2-4.2 16.5 2.4 1.2 1 3.7 2.8 5.6 4a117.9 117.9 0 0 1 8.5 5.9l.9.4v2.3c0 1.2-.2 3.1-.4 4.2a274.8 274.8 0 0 0-2.3 13.4 198.5 198.5 0 0 0-2.2 14.4c-1 5.7-1 7.3-1 10l.1 2.8.9.5a4406.5 4406.5 0 0 1 29 11c14.7 5.6 12.8 7 29-20.8l5.7-9.2c3.7-5.6 5.7-6.5 12.6-5.5 2.3.3 7 .8 11.3 1.1 8.2.7 9 1.1 11.3 8 3 8.5 11.1 29.4 12.6 32.3 1.5 2.8 3.4 4.2 5.1 3.9l3.7-.4zm-1.4-85.7a149.8 149.8 0 0 0 39.2-12.1c2-.8 9.5-5 11-6.1 2.5-2 2.7-9.8.4-14.4-3.9-7.6-2.8-11 6.4-20 8.3-8.2 10.3-11.2 12.3-18.4 2.7-9.5 2-11.1-3.7-8.6a92 92 0 0 1-10.5 3.5c-.3 0-.8-.5-1.4-1.5-1-1.9-2.5-3.2-5.8-5.5a11 11 0 0 1-4.4-4.4c-2.6-4-3.7-4.4-4.8-1.8-3 6.4-9 6.2-16.1-.4a247.9 247.9 0 0 1-24.2-21.5c-4.1-3.8-6.6-4-10.7-.8l-1.8 1.4v9.6l2 .7c10.2 3.4 7.6 15.7-3.3 14.9a437 437 0 0 0-26 0c-3.1.2-3.5.1-5-.4-2.2-.8-8.5-1-11.6-.4-1.7.3-3.9.4-10 .4h-7.8l-.1 2.3a11 11 0 0 1-1.1 4.5c-2.1 4.6-2 5 .5 9.5 6.6 11.3 17.2 19 23.6 17a55 55 0 0 1 9.4-1.3c2-.2 2.6-.4 3.8-1.1 4.3-2.7 6.4-2.9 9.8-.7 2.2 1.4 3.4 1.7 5.6 1.3 1.5-.3 4.7.2 5.2.7.2.2.2 1.1 0 3-1.1 7.7 0 10.8 4.3 13.5 6.2 3.7 8.3 10 5.3 16.5l-1.4 3.2v6.5l1.2 1.8c1.5 2.5 2 3.1 3.4 3.7 1 .4 1.1.6 1.3 1.8.2 1.5.5 2.2 1 2.2.3 0 .7.4 1 1 .4.6.8.9 1 .8l2-.4zm81.7-79.3.4-1.8.2-1.4-1.5-.3c-4.3-1-5-2-12.6-18.4a21512.3 21512.3 0 0 1-23.6-51c-.8-2-.9-2.1-4.1-1l-2.8.9v1l.3 3 .2 2h1.9c3.3 0 4.2.4 4.1 1.7 0 1.3-2.5 2.9-4.3 2.9-1.9 0-1.8-.8-1.8 11 0 11.1 0 11 1.3 10.1.9-.7 1-.5 1.5 2.6a21 21 0 0 0 6.7 12.3l4.8 5a6.1 6.1 0 0 0 3.5 2.3c2.1.7 4.2 2.3 4.8 3.7.2.6.8 1 2 1.7 3.4 1.7 5.2 3.3 11.4 10.1 3.4 3.7 6.7 5.2 7.6 3.6zm1.5-11c.5-6 2.3-10.9 8.7-24.5a446 446 0 0 0 9.4-20.7l1.4-3 4.3-9.7a822.4 822.4 0 0 0 9.8-21.9 409 409 0 0 1 8-17.6c3-7 6.2-9.7 13.6-11.1l2.9-.6c.8-.2.7-.8-.2-1.3a258 258 0 0 0-31.7 0c-1.3.7-1.2 1.3.1 1.5 4.7 1 6.4 2.4 6.4 5.4 0 2-2 7-7 18.9l-3.5 8a537.8 537.8 0 0 1-8.1 18.9 21136.8 21136.8 0 0 1-8.6 20c0 .4-.4.3-.8 0a5437.5 5437.5 0 0 0-25.5-61c-2.5-5.5-1.2-8.3 4.9-10 2-.5 2.2-1.1.8-1.7-2.1-1-47.4-.5-48.4.4-.3.4.4 1 1.1 1 5 0 9.4 3 11.8 7.8l2.4 4.4c1.2 2 2.9 5.4 2.9 5.8l4.2 9a539.7 539.7 0 0 1 12.3 25.8l7.1 15.1a318.9 318.9 0 0 0 8 17.5l1.5 3 1.8 4.2 1.9 4 1.9 4c2.8 7.2 6.4 11.7 6.6 8.5zm-50.6-1.2c0-.2 0-.7-.2-1.1l-.2-4.5a218.2 218.2 0 0 1-.8-29.1c0-18.5 0-21.6-.4-23.7-1-5.1.7-7.7 6.1-9.3 5.7-1.7-19.3-3.3-27-1.7-2.6.5-3.3 1.7-1 1.7 6.4 0 6.5.3 6.5 22.7 0 15.4-.2 18-.9 18a81 81 0 0 1-8.7-7.4 87.9 87.9 0 0 0-6.9-6l-4.5-4a866.1 866.1 0 0 1-21-18.6l-4.8-4.4-3.8-3.7-1.1.1c-1.7.2-2 .6-1.6 2 .2.7.3 2.7.3 4.3a457 457 0 0 1 0 52.8c0 7-.6 8.2-5.1 9.3-4.5 1.1-2.2 2.9 2.6 2 3.4-.7 20.3-.7 23.4 0 4 .8 6-1 2.2-2-2.2-.5-4.8-1.9-5.7-3l-.9-1.1v-17.4c-.1-17.5 0-18.8.9-21l.4-1 1.1 1.4a145.4 145.4 0 0 0 15.4 15l10.5 9.2a422.3 422.3 0 0 1 14.9 13.3l3.7 3.3c3.5 3.3 6.2 4.9 6.6 3.9zm166.9 0c9-1.6 13.3-3.5 18.5-8.3 3-2.6 2.8-2 2.9-12.3v-9l-.6.1c-.9.2-1.4 1.3-2.4 5.4-7.4 28.8-43.1 26-48.4-4a87 87 0 0 1 .3-19c1.4-13.3 15.5-22.1 31-19.2 6.3 1.1 13.6 8.7 16.3 17 1.2 3.5 2.9 2 2.1-1.8-.3-1.6-.4-3.7-.4-8.4v-6.3l-.7-.5c-2-1.5-9.7-3.7-14.8-4l-5-.6a51 51 0 0 0-32.2 6.4c-10 6.5-14 15-14 29 0 22.4 9.2 31.4 36.7 35.5 2.7.4 8 .4 10.7 0zm-412.7-.9c28-4.8 44.4-20.2 48.2-45.3 4.5-29.1-9.3-54-34.2-62a61.6 61.6 0 0 0-15.2-3.3c-31.2-5-61 10.7-69.2 36.5a86 86 0 0 0-.4 38.4 50 50 0 0 0 40.7 35l5.6 1c4 .7 19.8.5 24.5-.3zm-16-5c-9.2-1.2-17-6.2-22.5-14.5-12.5-18.8-12.2-56.2.6-73.3a31 31 0 0 1 48-3c10.8 11.6 14.4 26.5 12.5 53.2-1.6 24-18.3 40.3-38.6 37.6zm72.6 5.4c1-.3 10-.8 13.4-.8 3 0 10.8.5 12.5.8 2 .4 2.6.3 2.9-.4.2-.7-.6-1.4-2-1.6-2.2-.3-4.7-2-6.2-4.3l-.9-1.3.1-28.5v-28.5l1.4-.3c9.3-2.2 17 4 17.3 13.6.2 9.6-3 14.5-11.5 17.3-3.5 1.2-3.4 2.9.3 3.6 4.8 1 6.9 1.2 8.4 1 28-2.8 27.7-39.1-.4-39.1-3 0-5.4-.2-6.8-.4-5-1-31.1-.5-32.2.6-.5.5.3 1.1 1.4 1.1l2.6.4 1.6.3.6 2 .6 2v27.9c0 27.2 0 28-.5 29-1 1.8-2.7 3-5.4 3.7-.8.3-1.1.5-1.1.8 0 1.3 1.6 1.7 3.9 1zm60.9-.1c1.4-.3 5-.4 18.4-.4a258.1 258.1 0 0 0 23.7-.7c6.5-.2 6.9-.5 8.1-5.4l1.1-3.7c3.3-9.3 3-14.5-.5-7.8-5.1 10.2-10 12.5-26.3 13-7 0-6.2 2-6.2-13.9 0-15.8-1.5-13.8 9.8-13.7h9.1l.5 1 1.9 4.3c2.2 5.2 2.2 5.2 2.2-7 .1-12.7.2-12.6-2-8.3-2.5 4.7-4 5.4-13 5.6a92 92 0 0 0-7.3.4c-1.2.4-1.2.2-1.2-14 0-16.2-1.6-14.1 10-14 13.6.1 16 1.4 17.4 9.2.4 2 1.3 3.5 1.9 3 .4-.5.2-5.2-.3-8.4-.3-1.9-.3-2.6 0-4.5.9-5.8 1-5.5-3.2-5-5.6.7-9.5.8-27 1-17.3.3-20.8.5-21.6 1.2-.4.5.6 1 2.7 1.3 2.6.4 2.6.4 3.2 2.5 1.7 6 1.6 56-.1 59.4a6.7 6.7 0 0 1-3.7 2.7c-1.4.3-2.4 1.8-1.7 2.4.2.3 2.2.2 4-.2zm220.3 0c3.2-.6 22-.6 25 0 2.8.6 5-1 2.3-1.6-4.6-1-6.8-2.4-7.9-4.8-.5-1.1-.5-2-.5-29.3v-28l2.3-1.3c1.3-.7 3.2-1.5 4.1-1.8 2.2-.6 2.8-1 2-1.5-2.7-1.4-31-1.2-31.8.3-.3.5.3 1 1 1 4.5 0 6 2 6 7.7a239.5 239.5 0 0 1 .7 31.2v23l-2.3 1.4-3.6 1.7c-2.2.7-2.4 1-1.5 2 .6.6 1.4.6 4.2 0zm-120-48a61 61 0 0 1 3.3-2.5l1.3-.8-.1-4.3c-.1-4.8 0-4.7-2.5-5.4-7-2.1-7-11.2.1-13.8l2-.7 13.3-.1c7.3 0 13.6-.1 14-.2 1-.3 1.1.2-5.4-13.3-4.5-9.4-5.4-10.4-9.8-11.3-10.2-2.1-10.5-12.6-.5-14.9 2.9-.6 46.4-.7 48.9 0 8.6 2.2 9.2 11.8 1 14.5-2 .7-2.1.9-1.2 2.8l2.1 4.7 2.4 5.8a2110.1 2110.1 0 0 1 14.2 34.4c.4 1.5 1.1.2 4.2-6.8a230951.4 230951.4 0 0 0 11-25.6c5.6-13 6.1-14.8 4.3-15.3-5.7-1.7-7.4-7.9-3.3-12.2l1.4-1.6-1.3-1.1a15 15 0 0 1-2.8-3.5C379.5 169 357 143.8 352.8 145c-.3 0-.7-.2-1.3-1.2a27.8 27.8 0 0 0-10.3-7.2c-1.8 0-2.4 8.7-1 12.3l.8 2h-3a11 11 0 0 0-5 .6c-2.5.8-2.4.6-2.2 3.7v1.3l-1.3-.2c-1.2-.1-1.3-.1-1.6.5-.8 1.9-2.2 3-3.6 2.8h-1.4l-.2 1c-.3 1.1-.6 1.2-2 .5-1.1-.5-3.7.2-4.3 1.2-1.4 2.6-2 3-2 1.2 0-2-2.8-2.4-3.7-.7-1 2-.3 3.8 1.3 3.3 1.7-.4 1.9 0 .8 2.2-1 2.2-.8 2.1-2.5.7-2.2-1.8-5.2-2.3-6.6-1.2-.7.6-.3 3.2 1 6 1.4 3.3 1.4 3.2-.3 3.5l-1 .2-2.7-2.7c-4.4-4.4-8.9-8.7-20-3.8l-3.5 1.6-1 1.3-2 2.4a5 5 0 0 0-1 1.4c0 .2-.4.5-1 .7-1.4.6-4.7 5.6-5.7 8.8a8 8 0 0 1-1.3 2.6c-.7 1-1.3 2-2.4 4.6-.2.5-.5.8-.9.8-3.2 0-6.4 5.2-5.6 9.1.3 1.3.3 1.5-.2 2-.4.3-.5.6-.3 1.3.2.5.3 1.2.3 1.7 0 .7.8 1.7 1.9 2.4.4.3 2.8-.5 4.2-1.4 1.2-.8 1.5-.9 1.7-.6.5.9.2 1.3-1.5 2.2-2.8 1.4-2.9 1.7-2.5 9.5v1.3l-1.9.2c-2.4.2-4 1-5.2 2.9-.4.7-1.1 1.5-1.5 1.8-1 .9-.5 1.2 1.7 1.2 3.2 0 4.5.7 10 6a359.9 359.9 0 0 0 16.7 15.1l5.1 4.5c6.3 5.7 5.9 5.6 8.6 3.4zm-24.8-37.1c-1.2-.5-1-1.3.1-1.3 1.4 0 2.3-.6 2.3-1.5 0-.6.2-1 1-1.6 1.2-1 2-2.6 2.3-4.8.1-1 .4-2.2.7-2.6 3.5-5.4 3.5-5.7 1.5-5.7-2.3 0-2.9-1.5-2-5 .8-2.6 3-3.4 3-1 0 2.8 2 6.2 4.2 7.1l1.2.7c0 .5-1 1.8-1.8 2.4-.8.6-1 .9-1 1.9a4 4 0 0 1-.4 1.8c-.5.7-.5.8 0 3.5l.6 2.8-.8 1-.8 1-1.6-.2c-1.5-.1-1.8 0-3.9 1-2.5 1.2-3 1.3-4.6.5zm7.5-6.7c1.4-.7 2-4.7.9-4.7-.9 0-1.6 1.2-1.8 2.9-.3 1.8 0 2.3 1 1.8zm-11 1.2c-.5-1.4-.7-3.2-.2-3 1 .3 1.8 3.7.9 3.7-.2 0-.6-.3-.7-.7zm29.6-26.4c0-.3.3-.5.5-.5.6 0 .5.8 0 1-.4 0-.5-.1-.5-.5zm-1-3.3c-.4-1.3-.4-1.3 2.8-2.4 3.3-1.2 4-1 4 .5 0 1.2 0 1.2-1.1 1.4-.6.1-1.9.5-2.8.9-2.3 1-2.6.9-3-.4zm-46.5 44.7c.7-.1.8-.2.6-1.5-.1-1.1-.1-1.5.2-1.8.8-.6.5-1.9-.6-3.6-.6-1-1.1-1.7-1.1-1.9 0-.3-2-5.1-2.5-6.1l-.5-1 .7-.8c.8-1 1-2.6.2-3.3-.4-.5-.4-.6 0-2 1-2.9.5-3.5-1.5-2.4l-1.6.7c-.2 0-.7.2-1 .5-.7.5-.7.5-1.5 0-1-.7-1.3-.7-2.2.6-1 1.4-1.1 2.7-.2 3.3l.6.4-.6 1.7-.5 1.8-1.3-.2c-3.6-.4-7.7 4.4-7.7 9.1 0 2 .8 2.2 4.7 1.4 3-.6 3.4-.9 4.5-3.3 1.6-3.5 3.8-4.6 3.6-1.7v1.3l-1.5.4c-1.5.4-1.5.5-1.5 1.4 0 .5-.2 1.2-.5 1.5-.6.6-.6 1.3 0 2 .4.4.4.5 0 1-.8.8-.4 1 3.1 1.1 3 .1 3.4.2 5 1 .8.5 1.7.8 2 .7l1.1-.3zm-100.4-7.3c.5-1 .4-2.8-.4-4.2l-1.3-2.5a8 8 0 0 0-1.6-2 11 11 0 0 1-2-3c-1.5-3-4.2-5.3-6.2-5.3-1 0-1.8 2.9-1 4 .2.4.2.7-.2 1.5-1.4 3-.7 5 1.7 5 1.3 0 1.4 0 1.7.9 1.2 2.8 8.5 7.1 9.3 5.6zm-19.6-16a155.6 155.6 0 0 1 41-60.6 133 133 0 0 1 15.9-12.6 157.4 157.4 0 0 1 41-19.5 172 172 0 0 1 28.6-5.5c4.9-.5 18.3-.8 22.3-.4a181.7 181.7 0 0 1 34.4 6.5 63.2 63.2 0 0 1 9.7 3.4 152 152 0 0 1 76.5 66.5c.4.3 35.2.3 35.8.1.9-.3.3-2-3-8.7-3.8-7.7-3.8-7.5 2.4-14.6l4.7-5.7 8.8-10.6c12.4-14.8 13-11.5-5.8-33.7a6597 6597 0 0 1-5.9-7c-6.6-7.9-8.6-8.3-17.3-3.8-4.8 2.4-6.5 3.4-21.4 11.8-9.7 5.6-9.4 5.6-16.2 1.3a374 374 0 0 1-12.8-8.3c-5.8-3.4-6.4-5-5.1-12.5a2565.8 2565.8 0 0 0 5-29.6c1.5-8.4.9-9.4-7.7-12.5l-5.9-2.2a329.8 329.8 0 0 0-17.3-6.2c-10-3.8-10.8-3.8-13.3-.9-3.1 3.8-15 22.4-16.3 25.7a30 30 0 0 1-8 10.8 16 16 0 0 1-8 .4c-1.2-.3-4-.5-10.7-1a21 21 0 0 1-6.5-1.2c-3.5-1-4.4-2.1-6.2-7.2a579.7 579.7 0 0 0-13-34l-1-1.7h-3.3a69 69 0 0 0-13 1.4c-18.5 3-26.4 4.6-28.2 5.8-2 1.3-2.2 2.4-2.5 20.7a238 238 0 0 1-.8 25.7c-1 1-19.7 10.4-24.2 12-2 .7-2 .3-3-.4-2.4-1.9-3.7-3.2-7-5.7-1.2-1-3.2-2-6.4-4.6A4665 4665 0 0 0 150.3 77a63 63 0 0 0-9-6.2c-1.1 0-5 2.7-12.2 8.8-26 21.4-24.7 19.4-18.6 31.8a202.8 202.8 0 0 0 8.9 16.4l2.7 5.1c4.7 8.3 4.4 10-2.7 20.5-8 12-9.4 12.9-18.4 11.3a912.4 912.4 0 0 0-22.3-3.6c-17-2.4-15.5-3.5-22.5 16.3-1.8 5-2.3 4.6 5.4 4.8 12.3.3 20.6.8 24.1 1.6a60.9 60.9 0 0 1 33.4 18.4c5.8 5.7 7.5 6.7 8.2 4.6zm17-.7c3-2.1 5.4-6.5 5.6-10.1v-2l1.2-.3c.6-.2 2.2-.4 3.6-.5 4.6-.4 6.2-1.3 7.2-4.2.5-1.4.5-1.4 1.6-1.4.8 0 1.9-.4 3.8-1.4 4.1-2 7.4-2.5 11.5-1.7 4.8.9 5.2.7 6.8-3 1-2.2 1.1-2.4 1.7-2.4l2.4.3c3.7.3 4.7-1 4.8-5.9 0-1 .2-3 .5-4.3a24 24 0 0 0-.2-8.7c-.4-.8-.8-.8-3-.1-2 .6-2 .5-1.3-1.7l.6-1.8 2.2.2c1.9.1 2.3 0 3.3-.4 2-1 3-2.8 3.2-5.6l.2-2 1.5 1c4.3 2.8 6.7-1.1 4-6.6-1.5-3.3-1.5-3-.6-5.1 1.5-3.6.3-7.6-2.3-7.6-2.4 0-10.6 5.2-12.2 7.8-.5.8-.6.9-1.6.7-1-.2-1.2 0-3 1.1-2.8 2-2.8 2.1-.8 5 1.7 2.7 1.4 2.8-1.2.8-1-.8-2-1.4-2.1-1.4-1.7 0-10.2 7.8-11.6 10.7-.4.9-.4.9-1.8.7-1.3-.1-1.4-.1-2.1.9l-3.7 4c-9.2 9.6-22 29-22 33.4 0 .8-.3 3-.6 4.7-1 6.5.8 9.4 4.4 6.9zm97.3-16.7c2.4-1 3.6-2.5 3.5-4.4-.1-5.5-1-6.6-4.4-5.7-2 .5-6.1.3-6.3-.3-.9-3-2-3.5-4-1.8l-1.6 1.3c-1 .5-1 4 0 4.6.5.2 1 .7 1.3 1.2l.5.8-.8.4c-1.3.7-1.5 1.6-.5 2 .4.2.8.7 1 1 .4.8 1 1 1.6.6.5-.2.7-.1 1.3.4 1.5 1.4 5.1 1.3 8.4 0zm-23.7-12.3a9 9 0 0 0 2-1.8c.3-.6.7-1 1-1 .7 0 3.2-1.1 5.9-2.7 1.2-.7 12.7-1.2 13.3-.6.3.3 1 .2 1.5-.2.3-.4.6-.4 1.3-.2 1.4.4 6.6.4 6.9 0 .1-.2.3-.8.3-1.3.2-.8.3-1 1.3-1.2 1.2-.2 2.1-1 2.8-2.4.7-1.3.7-1.1-.6-2.3l-1.1-1 .5-.7c.3-.3 1.5-1.2 2.8-1.9a42.4 42.4 0 0 0 8.1-5.7c.6-.3.8-.7.8-1.5.1-1.6 2.4-2.4 7.4-2.7 3.6-.1 5.7-.8 5.7-1.7 0-1.4-1.6-3.4-2.7-3.4-.7 0-.9-1-.6-4.4.4-5.6.4-5.5-.9-7.3a12.2 12.2 0 0 1-2.4-5.3l-.2-1.4-2-.8a24 24 0 0 1-11.3-7.4c-2.7-3.2-10-2.9-25.6 1a96 96 0 0 0-18.7 6.3c-.8.9 0 3.4 1.3 3.7 1 .3 1.1.4 1 1.3-.3 1 .1 1.7.9 1.7.6 0 .6.2.1 1-.5.7-1.2 3.4-1.2 4.8 0 1 0 1.2-1 1.5l-.8.4-.1 3.2c-.2 3.1-.2 3.2-1.3 5.4-.6 1.3-1.6 3.5-2.1 5-1.3 3.7-1.8 4.6-3.5 6.4-1.7 1.8-1.8 2.5-.5 3l1 .5v2.9c0 3-.2 3.5-1.2 3.5s-.6 1.8.9 3c.4.5.5.8.3 2-.2 2 .3 2.3 4.1 2.5l3 .4c.5.4 2.2.1 3.6-.6zm103.4-22.4 3-1V151l-1.3-.6c-3.3-1.6-5.2-6.2-3-7.4l1.1-.5-.1-1.8c-.4-3.5.8-6.4 4.3-10.5 1.7-2-.7-4.1-5-4.6-2.9-.3-6.5 4.8-7 10-.2 1.5-.5 3-1 4-1 2.7-1 3 .1 4.1l1 1-.8.6c-3.5 2.8-1.5 10.7 2.4 9.7.4-.1.8 0 1 .2.5.7 2 .5 5.3-.4z"/>
</svg>
