<?xml version="1.0" encoding="UTF-8" standalone="no"?>
<svg
   height="16"
   viewBox="0 0 16 16"
   width="16"
   version="1.1"
   id="svg3"
   xmlns="http://www.w3.org/2000/svg"
   xmlns:svg="http://www.w3.org/2000/svg">
  <defs
     id="defs3" />
  <linearGradient
     id="a"
     gradientUnits="userSpaceOnUse"
     x2="0"
     y1="1"
     y2="15">
    <stop
       offset="0"
       stop-color="#ff5f5f"
       id="stop1" />
    <stop
       offset=".5"
       stop-color="#e1da5b"
       id="stop2" />
    <stop
       offset="1"
       stop-color="#5fff97"
       id="stop3" />
  </linearGradient>
  <path
     id="path1"
     style="font-size:12px;font-family:'Comic Sans MS';-inkscape-font-specification:'Comic Sans MS, Normal';fill:#00ff00;fill-opacity:1;fill-rule:nonzero;stroke-width:8.19897;paint-order:stroke fill markers"
     d="m 12.707019,3.8137902 c -0.258088,0 -0.481226,-0.091406 -0.669414,-0.2742179 -0.188189,-0.182812 -0.282283,-0.4032617 -0.282283,-0.6613491 0,-0.2580874 0.09409,-0.4785371 0.282283,-0.6613492 0.188188,-0.1828118 0.411326,-0.2742178 0.669414,-0.2742178 0.258087,0 0.478536,0.091406 0.661349,0.2742178 0.188189,0.1828121 0.282283,0.4032618 0.282283,0.6613492 0,0.2580874 -0.09409,0.4785371 -0.282283,0.6613491 -0.182813,0.1828119 -0.403262,0.2742179 -0.661349,0.2742179 z m 0.918119,8.4187028 c 0,0.227862 -0.07988,0.414296 -0.239653,0.559299 -0.15977,0.145004 -0.369835,0.217505 -0.6302,0.217505 -0.254446,0 -0.464513,-0.07251 -0.6302,-0.217505 -0.15977,-0.145003 -0.239654,-0.331437 -0.239654,-0.559299 0,-2.4822053 -0.0221,-4.3193229 -0.02721,-6.7647275 0,-0.2330412 0.07988,-0.4220635 0.239653,-0.567067 0.165686,-0.1450033 0.375753,-0.217505 0.630201,-0.217505 0.254447,0 0.461555,0.072502 0.621324,0.217505 0.165686,0.1450035 0.248529,0.3340258 0.248529,0.567067 0,6.6010005 0.02721,-3.6766455 0.02721,6.7647275 z m -2.66514,-0.639606 c 0,0.702996 -0.465624,1.272887 -1.0399999,1.272887 -0.5743763,0 -1.0400002,-0.569891 -1.04,-1.272887 2e-7,-0.702996 0.465624,-1.272886 1.04,-1.272886 0.5743759,0 1.0399999,0.56989 1.0399999,1.272886 z M 10.190763,2 c 1.196175,-0.045586 1.392735,1.8799519 0,2 C 5.550176,4.4 3.8401956,7.521722 3.8401956,11.94 3.8401956,13.273333 2,13.333333 2,12 2,6.4771525 4.7302485,2.2080992 10.190763,2 Z m 0.06,3.86 c 0.914986,-0.091102 1.317621,1.3271655 -0.08,1.78 C 8.9386026,8.0392247 7.756579,9.710861 7.6605869,11.9 7.602172,13.232175 5.8503681,13.253299 5.8603912,11.92 5.8813932,9.1262915 7.7959458,6.1044167 10.250763,5.86 Z" />
</svg>
